<?xml version="1.0" encoding="UTF-8" standalone="no"?><svg xmlns="http://www.w3.org/2000/svg" xmlns:xlink="http://www.w3.org/1999/xlink" contentScriptType="application/ecmascript" contentStyleType="text/css" height="910.8px" preserveAspectRatio="none" style="width:665px;height:910px;" version="1.1" viewBox="0 0 665 910" width="665.1px" zoomAndPan="magnify"><defs><filter height="300%" id="f1gmv8yy14qa7e" width="300%" x="-1" y="-1"><feGaussianBlur result="blurOut" stdDeviation="1.8"/><feColorMatrix in="blurOut" result="blurOut2" type="matrix" values="0 0 0 0 0 0 0 0 0 0 0 0 0 0 0 0 0 0 .4 0"/><feOffset dx="3.6" dy="3.6" in="blurOut2" result="blurOut3"/><feBlend in="SourceGraphic" in2="blurOut3" mode="normal"/></filter></defs><g><!--MD5=[b46b01e2e8b718280eff94e1f0541cad]
cluster FlightBookingSystem--><rect fill="#FFFFFF" filter="url(#f1gmv8yy14qa7e)" height="732.6" style="stroke:#000000;stroke-width:1.35;" width="515.7" x="138.6" y="85.248"/><text fill="#000000" font-family="sans-serif" font-size="12.6" font-weight="bold" lengthAdjust="spacing" textLength="133.2" x="329.85" y="100.1279">FlightBookingSystem</text><ellipse cx="541.4373" cy="210.4555" fill="#FEFECE" filter="url(#f1gmv8yy14qa7e)" rx="72.9873" ry="16.7575" style="stroke:#A80036;stroke-width:1.35;"/><text fill="#000000" font-family="sans-serif" font-size="12.6" lengthAdjust="spacing" textLength="105.3" x="488.3258" y="213.9463">Search for a Flight</text><ellipse cx="241.9073" cy="658.4195" fill="#FEFECE" filter="url(#f1gmv8yy14qa7e)" rx="65.0573" ry="15.1715" style="stroke:#A80036;stroke-width:1.35;"/><text fill="#000000" font-family="sans-serif" font-size="12.6" lengthAdjust="spacing" textLength="84.6" x="196.9073" y="662.4844">Create a Flight</text><ellipse cx="241.8765" cy="132.0033" fill="#FEFECE" filter="url(#f1gmv8yy14qa7e)" rx="60.9765" ry="14.3553" style="stroke:#A80036;stroke-width:1.35;"/><text fill="#000000" font-family="sans-serif" font-size="12.6" lengthAdjust="spacing" textLength="72.9" x="202.7265" y="136.0682">Book Tickets</text><ellipse cx="242.0333" cy="193.0547" fill="#FEFECE" filter="url(#f1gmv8yy14qa7e)" rx="64.7333" ry="15.1067" style="stroke:#A80036;stroke-width:1.35;"/><text fill="#000000" font-family="sans-serif" font-size="12.6" lengthAdjust="spacing" textLength="83.7" x="197.4833" y="197.1196">Cancel Tickets</text><ellipse cx="541.3703" cy="139.9721" fill="#FEFECE" filter="url(#f1gmv8yy14qa7e)" rx="98.5703" ry="21.8741" style="stroke:#A80036;stroke-width:1.35;"/><text fill="#000000" font-family="sans-serif" font-size="12.6" lengthAdjust="spacing" textLength="163.8" x="459.4703" y="143.3277">View additional FlightOptions</text><ellipse cx="541.3195" cy="755.5619" fill="#FEFECE" filter="url(#f1gmv8yy14qa7e)" rx="78.2695" ry="17.8139" style="stroke:#A80036;stroke-width:1.35;"/><text fill="#000000" font-family="sans-serif" font-size="12.6" lengthAdjust="spacing" textLength="117.9" x="482.3695" y="758.9176">Create FlightOptions</text><ellipse cx="242.1707" cy="721.7421" fill="#FEFECE" filter="url(#f1gmv8yy14qa7e)" rx="71.1707" ry="16.3941" style="stroke:#A80036;stroke-width:1.35;"/><text fill="#000000" font-family="sans-serif" font-size="12.6" lengthAdjust="spacing" textLength="100.8" x="190.5076" y="725.4536">Edit FlightOptions</text><ellipse cx="241.9468" cy="318.4074" fill="#FEFECE" filter="url(#f1gmv8yy14qa7e)" rx="81.7468" ry="18.5094" style="stroke:#A80036;stroke-width:1.35;"/><text fill="#000000" font-family="sans-serif" font-size="12.6" lengthAdjust="spacing" textLength="126" x="178.9468" y="321.763">Remove FlightOptions</text><ellipse cx="242.2918" cy="254.5032" fill="#FEFECE" filter="url(#f1gmv8yy14qa7e)" rx="51.4918" ry="14.0052" style="stroke:#A80036;stroke-width:1.35;"/><text fill="#000000" font-family="sans-serif" font-size="12.6" lengthAdjust="spacing" textLength="57.6" x="210.7918" y="258.5681">View KPI's</text><ellipse cx="242.2713" cy="387.5923" fill="#FEFECE" filter="url(#f1gmv8yy14qa7e)" rx="85.6713" ry="19.2943" style="stroke:#A80036;stroke-width:1.35;"/><text fill="#000000" font-family="sans-serif" font-size="12.6" lengthAdjust="spacing" textLength="135" x="174.7713" y="390.9479">Create PriceReductions</text><ellipse cx="242.0695" cy="456.7619" fill="#FEFECE" filter="url(#f1gmv8yy14qa7e)" rx="78.2695" ry="17.8139" style="stroke:#A80036;stroke-width:1.35;"/><text fill="#000000" font-family="sans-serif" font-size="12.6" lengthAdjust="spacing" textLength="117.9" x="183.1195" y="460.1176">Edit PriceReductions</text><ellipse cx="242.2513" cy="526.4583" fill="#FEFECE" filter="url(#f1gmv8yy14qa7e)" rx="89.2513" ry="20.0103" style="stroke:#A80036;stroke-width:1.35;"/><text fill="#000000" font-family="sans-serif" font-size="12.6" lengthAdjust="spacing" textLength="143.1" x="170.7013" y="529.8139">Remove PriceReductions</text><ellipse cx="241.9516" cy="594.5283" fill="#FEFECE" filter="url(#f1gmv8yy14qa7e)" rx="74.1016" ry="16.9803" style="stroke:#A80036;stroke-width:1.35;"/><text fill="#000000" font-family="sans-serif" font-size="12.6" lengthAdjust="spacing" textLength="108" x="187.9516" y="597.884">Start SalesProcess</text><ellipse cx="242.0282" cy="786.1536" fill="#FEFECE" filter="url(#f1gmv8yy14qa7e)" rx="73.7282" ry="16.9056" style="stroke:#A80036;stroke-width:1.35;"/><text fill="#000000" font-family="sans-serif" font-size="12.6" lengthAdjust="spacing" textLength="107.1" x="188.3261" y="789.5546">Stop SalesProcess</text><ellipse cx="541.2944" cy="658.6269" fill="#FEFECE" filter="url(#f1gmv8yy14qa7e)" rx="84.0944" ry="18.9789" style="stroke:#A80036;stroke-width:1.35;"/><text fill="#000000" font-family="sans-serif" font-size="12.6" lengthAdjust="spacing" textLength="131.4" x="475.5944" y="661.9825">Create FlightLeg Stops</text><!--MD5=[051be2fd78f954f5152ae04633b10bc0]
entity se--><ellipse cx="50.85" cy="74.448" fill="#FEFECE" filter="url(#f1gmv8yy14qa7e)" rx="14.4" ry="14.4" style="stroke:#A80036;stroke-width:1.35;"/><path d="M50.85,92.448 C54.45,92.448 57.15,92.448 60.75,88.848 C67.95,88.848 75.15,96.048 75.15,103.248 L75.15,106.848 C75.15,110.448 71.55,114.048 67.95,114.048 L33.75,114.048 C30.15,114.048 26.55,110.448 26.55,106.848 L26.55,103.248 C26.55,96.048 33.75,88.848 40.95,88.848 C44.55,92.448 47.25,92.448 50.85,92.448 " fill="#FEFECE" filter="url(#f1gmv8yy14qa7e)" style="stroke:#A80036;stroke-width:1.35;"/><text fill="#000000" font-family="sans-serif" font-size="12.6" lengthAdjust="spacing" textLength="90.9" x="5.4" y="128.4779">Sales Employee</text><!--MD5=[31b50539c062e48f418cd0b43b66a14f]
entity sm--><ellipse cx="50.85" cy="233.748" fill="#FEFECE" filter="url(#f1gmv8yy14qa7e)" rx="14.4" ry="14.4" style="stroke:#A80036;stroke-width:1.35;"/><path d="M50.85,251.748 C54.45,251.748 57.15,251.748 60.75,248.148 C67.95,248.148 75.15,255.348 75.15,262.548 L75.15,266.148 C75.15,269.748 71.55,273.348 67.95,273.348 L33.75,273.348 C30.15,273.348 26.55,269.748 26.55,266.148 L26.55,262.548 C26.55,255.348 33.75,248.148 40.95,248.148 C44.55,251.748 47.25,251.748 50.85,251.748 " fill="#FEFECE" filter="url(#f1gmv8yy14qa7e)" style="stroke:#A80036;stroke-width:1.35;"/><text fill="#000000" font-family="sans-serif" font-size="12.6" lengthAdjust="spacing" textLength="85.5" x="8.1" y="287.7779">Sales Manager</text><!--MD5=[cbf3ffb352d9865303b7d468db07b81d]
entity so--><ellipse cx="50.85" cy="534.348" fill="#FEFECE" filter="url(#f1gmv8yy14qa7e)" rx="14.4" ry="14.4" style="stroke:#A80036;stroke-width:1.35;"/><path d="M50.85,552.348 C54.45,552.348 57.15,552.348 60.75,548.748 C67.95,548.748 75.15,555.948 75.15,563.148 L75.15,566.748 C75.15,570.348 71.55,573.948 67.95,573.948 L33.75,573.948 C30.15,573.948 26.55,570.348 26.55,566.748 L26.55,563.148 C26.55,555.948 33.75,548.748 40.95,548.748 C44.55,552.348 47.25,552.348 50.85,552.348 " fill="#FEFECE" filter="url(#f1gmv8yy14qa7e)" style="stroke:#A80036;stroke-width:1.35;"/><text fill="#000000" font-family="sans-serif" font-size="12.6" lengthAdjust="spacing" textLength="72.9" x="14.4" y="588.3779">Sales Officer</text><!--MD5=[f0be2fb77127b088597f947fa9e3d650]
link UC2 to UC9--><path d="M307.539,658.548 C345.888,658.548 395.37,658.548 438.858,658.548 " fill="none" id="UC2-to-UC9" style="stroke:#A80036;stroke-width:0.9;"/><polygon fill="none" points="439.083,652.239,457.083,658.548,439.083,664.839,439.083,652.239" style="stroke:#A80036;stroke-width:0.9;"/><text fill="#000000" font-family="sans-serif" font-size="11.7" lengthAdjust="spacing" textLength="55.8" x="359.1" y="655.3936">«includes»</text><!--MD5=[436623159342f13c9fd9ed0a1f967804]
link UC2 to UC5--><path d="M280.971,670.95 C330.831,687.24 418.995,716.058 478.557,735.516 " fill="none" id="UC2-to-UC5" style="stroke:#A80036;stroke-width:0.9;"/><polygon fill="none" points="480.519,729.531,495.675,741.114,476.604,741.51,480.519,729.531" style="stroke:#A80036;stroke-width:0.9;"/><text fill="#000000" font-family="sans-serif" font-size="11.7" lengthAdjust="spacing" textLength="55.8" x="359.1" y="695.8936">«includes»</text><!--MD5=[165d7ea59359575911f0658a4bd1d977]
link UC3 to UC1--><path d="M283.428,142.686 C332.766,155.673 416.844,177.804 475.344,193.203 " fill="none" id="UC3-to-UC1" style="stroke:#A80036;stroke-width:0.9;"/><polygon fill="none" points="477.189,187.173,492.984,197.847,473.976,199.359,477.189,187.173" style="stroke:#A80036;stroke-width:0.9;"/><text fill="#000000" font-family="sans-serif" font-size="11.7" lengthAdjust="spacing" textLength="55.8" x="359.1" y="161.2936">«includes»</text><!--MD5=[c2c2d51be8a732dddcb94b0c58646b8f]
link UC3 to UC4--><path d="M303.192,133.686 C338.238,134.64 383.598,135.873 425.25,137.007 " fill="none" id="UC3-to-UC4" style="stroke:#A80036;stroke-width:0.9;"/><polygon fill="none" points="425.637,130.716,443.457,137.502,425.295,143.307,425.637,130.716" style="stroke:#A80036;stroke-width:0.9;"/><text fill="#000000" font-family="sans-serif" font-size="11.7" lengthAdjust="spacing" textLength="55.8" x="359.1" y="132.4936">«includes»</text><!--MD5=[c248b895b05d1451b1da890335cb91a1]
link se to UC1--><path d="M96.372,82.512 C170.928,64.323 321.885,40.266 415.8,112.248 C440.856,131.445 419.715,156.411 442.8,177.948 C452.835,187.299 465.642,193.959 478.647,198.702 " fill="none" id="se-to-UC1" style="stroke:#A80036;stroke-width:0.9;"/><polygon fill="#A80036" points="483.066,200.232,476.6018,194.167,478.8166,198.7512,474.2325,200.966,483.066,200.232" style="stroke:#A80036;stroke-width:0.9;"/><!--MD5=[afe2321f18a3e80cd8149a281d537eda]
link se to UC3--><path d="M96.408,103.842 C124.443,109.305 160.695,116.361 189.909,122.049 " fill="none" id="se-to-UC3" style="stroke:#A80036;stroke-width:0.9;"/><polygon fill="#A80036" points="194.535,122.958,187.2726,117.8759,190.118,122.0977,185.8962,124.9431,194.535,122.958" style="stroke:#A80036;stroke-width:0.9;"/><!--MD5=[130d897cd52c844dace1857aab5c5e89]
link se to UC4--><path d="M96.615,58.905 C105.048,53.82 114.111,49.365 123.3,46.548 C247.554,8.334 292.482,5.4 415.8,46.548 C456.174,60.012 493.983,92.259 517.14,115.128 " fill="none" id="se-to-UC4" style="stroke:#A80036;stroke-width:0.9;"/><polygon fill="#A80036" points="520.452,118.431,517.27,110.1579,517.27,115.249,512.1789,115.249,520.452,118.431" style="stroke:#A80036;stroke-width:0.9;"/><!--MD5=[4ccd7b39608dfcf3cfbd6a0b97b48444]
link se to UC10--><path d="M89.091,131.859 C101.718,142.713 116.433,153.801 131.4,161.748 C148.59,170.865 168.732,177.624 187.047,182.493 " fill="none" id="se-to-UC10" style="stroke:#A80036;stroke-width:0.9;"/><polygon fill="#A80036" points="191.412,183.618,184.4764,178.0983,187.0564,182.4873,182.6673,185.0673,191.412,183.618" style="stroke:#A80036;stroke-width:0.9;"/><!--MD5=[50b22b17e275c746cc65be0f20e61fa0]
link so to UC2--><path d="M85.5,591.831 C98.757,604.503 114.777,617.805 131.4,627.048 C148.104,636.327 167.778,643.077 185.832,647.901 " fill="none" id="so-to-UC2" style="stroke:#A80036;stroke-width:0.9;"/><polygon fill="#A80036" points="190.386,649.08,183.4504,643.5603,186.0304,647.9493,181.6413,650.5293,190.386,649.08" style="stroke:#A80036;stroke-width:0.9;"/><!--MD5=[652a5936e71aa6cf301292c2511b9178]
link so to UC5--><path d="M57.366,591.633 C68.301,657.423 94.635,791.442 131.4,818.748 C247.491,904.95 433.836,816.696 508.248,774.99 " fill="none" id="so-to-UC5" style="stroke:#A80036;stroke-width:0.9;"/><polygon fill="#A80036" points="512.559,772.56,503.7352,773.4031,508.6393,774.7704,507.2719,779.6745,512.559,772.56" style="stroke:#A80036;stroke-width:0.9;"/><!--MD5=[011aba807154a8b76dbd7e3bfac2b71d]
link so to UC7--><path d="M65.313,518.31 C78.075,488.547 99.963,447.606 131.4,422.748 C143.136,413.46 157.383,406.611 171.675,401.553 " fill="none" id="so-to-UC7" style="stroke:#A80036;stroke-width:0.9;"/><polygon fill="#A80036" points="176.103,400.041,167.2743,399.251,171.8443,401.4949,169.6005,406.0649,176.103,400.041" style="stroke:#A80036;stroke-width:0.9;"/><!--MD5=[da6e84d50cf2354baf193560ccf2ddb5]
link so to UC8--><path d="M87.381,562.491 C113.949,568.044 150.831,575.757 181.818,582.228 " fill="none" id="so-to-UC8" style="stroke:#A80036;stroke-width:0.9;"/><polygon fill="#A80036" points="186.345,583.182,179.1573,577.9948,181.941,582.2575,177.6782,585.0412,186.345,583.182" style="stroke:#A80036;stroke-width:0.9;"/><!--MD5=[100258a8373e2b85dd6d6c9de5f1d7ae]
link so to UC11--><path d="M64.665,591.552 C77.211,621.9 99.117,664.047 131.4,689.148 C144.81,699.57 161.505,706.644 177.795,711.45 " fill="none" id="so-to-UC11" style="stroke:#A80036;stroke-width:0.9;"/><polygon fill="#A80036" points="182.376,712.737,175.5566,707.0743,178.0448,711.516,173.6031,714.0042,182.376,712.737" style="stroke:#A80036;stroke-width:0.9;"/><!--MD5=[27a99d970e862a88ba581bd8cfc12f98]
link so to UC12--><path d="M56.475,518.238 C64.215,472.995 83.808,396.792 131.4,352.548 C142.263,342.441 156.078,335.322 170.208,330.309 " fill="none" id="so-to-UC12" style="stroke:#A80036;stroke-width:0.9;"/><polygon fill="#A80036" points="174.6,328.815,165.7735,328.0011,170.3374,330.2573,168.0812,334.8213,174.6,328.815" style="stroke:#A80036;stroke-width:0.9;"/><!--MD5=[89d3eb7e9bfa34a00e4ce0dd9f2b3625]
link so to UC13--><path d="M87.696,520.83 C100.692,509.868 115.974,498.447 131.4,490.248 C146.592,482.166 164.034,475.749 180.477,470.79 " fill="none" id="so-to-UC13" style="stroke:#A80036;stroke-width:0.9;"/><polygon fill="#A80036" points="185.085,469.431,176.2978,468.2671,180.7685,470.7028,178.3327,475.1735,185.085,469.431" style="stroke:#A80036;stroke-width:0.9;"/><!--MD5=[01df56939cad0ba00fee8a644cc5dd33]
link so to UC14--><path d="M87.381,549.63 C108.864,546.363 137.097,542.07 163.503,538.056 " fill="none" id="so-to-UC14" style="stroke:#A80036;stroke-width:0.9;"/><polygon fill="#A80036" points="168.066,537.363,159.5143,535.031,163.6179,538.0444,160.6045,542.1479,168.066,537.363" style="stroke:#A80036;stroke-width:0.9;"/><!--MD5=[64078d69ae15c48f24fffff8e4b7e9f6]
link sm to UC6--><path d="M93.798,254.448 C120.906,254.448 156.456,254.448 185.85,254.448 " fill="none" id="sm-to-UC6" style="stroke:#A80036;stroke-width:0.9;"/><polygon fill="#A80036" points="190.512,254.448,182.412,250.848,186.012,254.448,182.412,258.048,190.512,254.448" style="stroke:#A80036;stroke-width:0.9;"/><!--MD5=[a2cf40589b11fb6f032d033e26d256a8]
@startuml
left to right direction
skinparam classAttributeIconSize 0
skinparam componentStyle uml2
skinparam actorStyle awesome
hide circle

actor "Sales Employee" as se
actor "Sales Manager" as sm
actor "Sales Officer" as so

rectangle FlightBookingSystem {
  usecase "Search for a Flight" as UC1
  usecase "Create a Flight" as UC2
  usecase "Book Tickets" as UC3
  usecase "Cancel Tickets" as UC10
  usecase "View additional FlightOptions" as UC4
  usecase "Create FlightOptions" as UC5
  usecase "Edit FlightOptions" as UC11
  usecase "Remove FlightOptions" as UC12
  usecase "View KPI's" as UC6
  usecase "Create PriceReductions" as UC7
  usecase "Edit PriceReductions" as UC13
  usecase "Remove PriceReductions" as UC14
  usecase "Start SalesProcess" as UC8
  usecase "Stop SalesProcess" as UC15
  usecase "Create FlightLeg Stops" as UC9
}

UC2 - -|> UC9: <<includes>>
UC2 - -|> UC5: <<includes>>

UC3 - -|> UC1: <<includes>>
UC3 - -|> UC4: <<includes>>

se - -> UC1
se - -> UC3
se - -> UC4
se - -> UC10

so - -> UC2
so - -> UC5
so - -> UC7
so - -> UC8
so - -> UC11
so - -> UC12
so - -> UC13
so - -> UC14

sm - -> UC6
@enduml

PlantUML version 1.2021.01(Tue Feb 02 08:55:08 CET 2021)
(GPL source distribution)
Java Runtime: OpenJDK Runtime Environment
JVM: OpenJDK 64-Bit Server VM
Default Encoding: Cp1252
Language: de
Country: DE
--></g></svg>